<svg xmlns="http://www.w3.org/2000/svg" xmlns:xlink="http://www.w3.org/1999/xlink" width="500" zoomAndPan="magnify" viewBox="0 0 375 374.999991" height="500" preserveAspectRatio="xMidYMid meet" version="1.0"><defs><clipPath id="ee96cf5f2a"><path d="M 145.460938 131.925781 L 229.734375 131.925781 L 229.734375 185.726562 L 145.460938 185.726562 Z M 145.460938 131.925781 " clip-rule="nonzero"/></clipPath><clipPath id="c6a196ad37"><path d="M 162.710938 131.925781 L 212.289062 131.925781 C 216.863281 131.925781 221.253906 133.742188 224.488281 136.980469 C 227.722656 140.214844 229.539062 144.601562 229.539062 149.175781 L 229.539062 168.476562 C 229.539062 173.054688 227.722656 177.441406 224.488281 180.675781 C 221.253906 183.910156 216.863281 185.726562 212.289062 185.726562 L 162.710938 185.726562 C 158.136719 185.726562 153.746094 183.910156 150.511719 180.675781 C 147.277344 177.441406 145.460938 173.054688 145.460938 168.476562 L 145.460938 149.175781 C 145.460938 144.601562 147.277344 140.214844 150.511719 136.980469 C 153.746094 133.742188 158.136719 131.925781 162.710938 131.925781 Z M 162.710938 131.925781 " clip-rule="nonzero"/></clipPath><clipPath id="0d68eecef6"><path d="M 131.191406 188.542969 L 174.539062 188.542969 L 174.539062 228.605469 L 131.191406 228.605469 Z M 131.191406 188.542969 " clip-rule="nonzero"/></clipPath><clipPath id="9417416452"><path d="M 152.808594 188.542969 C 140.867188 188.542969 131.191406 197.511719 131.191406 208.574219 C 131.191406 219.636719 140.867188 228.605469 152.808594 228.605469 C 164.746094 228.605469 174.425781 219.636719 174.425781 208.574219 C 174.425781 197.511719 164.746094 188.542969 152.808594 188.542969 Z M 152.808594 188.542969 " clip-rule="nonzero"/></clipPath><clipPath id="e78ba5e28a"><path d="M 141 230.207031 L 163 230.207031 L 163 262 L 141 262 Z M 141 230.207031 " clip-rule="nonzero"/></clipPath><clipPath id="87066d0eab"><path d="M 169 230.207031 L 205 230.207031 L 205 282 L 169 282 Z M 169 230.207031 " clip-rule="nonzero"/></clipPath><clipPath id="bf26ce36d3"><path d="M 212 230.207031 L 236 230.207031 L 236 265 L 212 265 Z M 212 230.207031 " clip-rule="nonzero"/></clipPath></defs><rect x="-37.5" width="450" fill="#ffffff" y="-37.499999" height="449.999989" fill-opacity="1"/><rect x="-37.5" width="450" fill="#000000" y="-37.499999" height="449.999989" fill-opacity="1"/><path fill="#ffffff" d="M 131.25 158.882812 L 131.25 208.882812 L 131.570312 208.882812 C 133.101562 219.457031 142.132812 227.632812 153.125 227.632812 C 160.460938 227.632812 166.085938 225.023438 169.824219 220.292969 C 170.40625 220.875 171.011719 221.429688 171.644531 221.949219 C 172.28125 222.472656 172.9375 222.960938 173.621094 223.417969 C 174.304688 223.875 175.007812 224.296875 175.730469 224.683594 C 176.457031 225.074219 177.195312 225.421875 177.957031 225.738281 C 178.714844 226.050781 179.488281 226.328125 180.273438 226.566406 C 181.058594 226.804688 181.855469 227.003906 182.660156 227.160156 C 183.46875 227.320312 184.28125 227.4375 185.097656 227.519531 C 185.914062 227.597656 186.734375 227.636719 187.554688 227.632812 C 188.378906 227.632812 189.195312 227.589844 190.011719 227.507812 C 190.832031 227.421875 191.640625 227.300781 192.445312 227.136719 C 193.253906 226.972656 194.046875 226.769531 194.832031 226.53125 C 195.617188 226.289062 196.386719 226.007812 197.144531 225.691406 C 197.902344 225.371094 198.644531 225.019531 199.367188 224.625 C 200.089844 224.234375 200.789062 223.808594 201.46875 223.351562 C 202.148438 222.890625 202.804688 222.398438 203.4375 221.871094 C 204.070312 221.347656 204.671875 220.792969 205.25 220.207031 C 209.007812 224.96875 214.648438 227.632812 221.875 227.632812 C 233.9375 227.632812 243.75 217.820312 243.75 205.757812 L 243.75 158.882812 C 243.75 127.867188 218.519531 102.632812 187.5 102.632812 C 156.480469 102.632812 131.25 127.867188 131.25 158.882812 Z M 168.75 165.132812 C 161.855469 165.132812 156.25 159.523438 156.25 152.632812 C 156.25 145.738281 161.855469 140.132812 168.75 140.132812 C 175.644531 140.132812 181.25 145.738281 181.25 152.632812 C 181.25 159.523438 175.644531 165.132812 168.75 165.132812 Z M 206.25 140.132812 C 213.144531 140.132812 218.75 145.738281 218.75 152.632812 C 218.75 159.523438 213.144531 165.132812 206.25 165.132812 C 199.355469 165.132812 193.75 159.523438 193.75 152.632812 C 193.75 145.738281 199.355469 140.132812 206.25 140.132812 Z M 206.25 140.132812 " fill-opacity="1" fill-rule="nonzero"/><g clip-path="url(#ee96cf5f2a)"><g clip-path="url(#c6a196ad37)"><path fill="#ffffff" d="M 145.460938 131.925781 L 229.527344 131.925781 L 229.527344 185.726562 L 145.460938 185.726562 Z M 145.460938 131.925781 " fill-opacity="1" fill-rule="nonzero"/></g></g><g clip-path="url(#0d68eecef6)"><g clip-path="url(#9417416452)"><path fill="#ffffff" d="M 131.191406 188.542969 L 174.382812 188.542969 L 174.382812 228.605469 L 131.191406 228.605469 Z M 131.191406 188.542969 " fill-opacity="1" fill-rule="nonzero"/></g></g><path fill="#000000" d="M 166.890625 193.832031 C 165.757812 193.835938 164.765625 193.460938 163.914062 192.714844 L 136.351562 168.597656 C 136.109375 168.382812 135.894531 168.148438 135.699219 167.890625 C 135.507812 167.632812 135.347656 167.355469 135.214844 167.0625 C 135.082031 166.769531 134.980469 166.464844 134.910156 166.148438 C 134.84375 165.835938 134.808594 165.515625 134.808594 165.195312 C 134.808594 164.871094 134.84375 164.554688 134.910156 164.238281 C 134.980469 163.925781 135.082031 163.621094 135.214844 163.328125 C 135.347656 163.035156 135.507812 162.757812 135.699219 162.5 C 135.894531 162.238281 136.109375 162.003906 136.351562 161.792969 L 163.914062 137.675781 C 164.140625 137.480469 164.378906 137.308594 164.636719 137.160156 C 164.894531 137.011719 165.164062 136.890625 165.445312 136.792969 C 165.726562 136.699219 166.011719 136.632812 166.308594 136.59375 C 166.601562 136.554688 166.898438 136.546875 167.195312 136.566406 C 167.492188 136.585938 167.78125 136.632812 168.070312 136.710938 C 168.355469 136.789062 168.632812 136.894531 168.898438 137.023438 C 169.164062 137.15625 169.414062 137.3125 169.648438 137.492188 C 169.886719 137.675781 170.101562 137.878906 170.296875 138.101562 C 170.492188 138.324219 170.664062 138.5625 170.8125 138.820312 C 170.960938 139.078125 171.082031 139.347656 171.175781 139.628906 C 171.273438 139.910156 171.339844 140.199219 171.378906 140.492188 C 171.417969 140.789062 171.425781 141.082031 171.40625 141.378906 C 171.386719 141.675781 171.335938 141.96875 171.261719 142.253906 C 171.183594 142.539062 171.078125 142.816406 170.945312 143.082031 C 170.816406 143.347656 170.660156 143.601562 170.476562 143.835938 C 170.296875 144.070312 170.09375 144.285156 169.871094 144.480469 L 146.195312 165.195312 L 169.871094 185.90625 C 170.214844 186.210938 170.507812 186.558594 170.75 186.949219 C 170.988281 187.34375 171.164062 187.761719 171.277344 188.207031 C 171.390625 188.65625 171.433594 189.109375 171.40625 189.566406 C 171.382812 190.027344 171.289062 190.472656 171.125 190.902344 C 170.964844 191.332031 170.742188 191.730469 170.457031 192.09375 C 170.175781 192.457031 169.84375 192.769531 169.464844 193.03125 C 169.089844 193.292969 168.679688 193.492188 168.242188 193.628906 C 167.800781 193.765625 167.351562 193.832031 166.890625 193.832031 Z M 166.890625 193.832031 " fill-opacity="1" fill-rule="nonzero"/><path fill="#000000" d="M 208.234375 193.832031 C 207.773438 193.835938 207.324219 193.765625 206.886719 193.628906 C 206.445312 193.492188 206.035156 193.292969 205.660156 193.03125 C 205.28125 192.769531 204.949219 192.457031 204.667969 192.09375 C 204.382812 191.730469 204.160156 191.335938 204 190.902344 C 203.835938 190.472656 203.742188 190.027344 203.714844 189.566406 C 203.691406 189.109375 203.734375 188.65625 203.84375 188.207031 C 203.957031 187.761719 204.132812 187.34375 204.375 186.949219 C 204.613281 186.558594 204.910156 186.210938 205.253906 185.90625 L 228.929688 165.195312 L 205.257812 144.480469 C 205.035156 144.285156 204.832031 144.070312 204.652344 143.835938 C 204.46875 143.601562 204.316406 143.347656 204.183594 143.082031 C 204.050781 142.816406 203.949219 142.539062 203.871094 142.253906 C 203.792969 141.96875 203.746094 141.675781 203.726562 141.378906 C 203.707031 141.082031 203.714844 140.789062 203.753906 140.496094 C 203.792969 140.199219 203.859375 139.914062 203.957031 139.632812 C 204.050781 139.351562 204.171875 139.082031 204.320312 138.824219 C 204.46875 138.566406 204.640625 138.328125 204.835938 138.105469 C 205.03125 137.878906 205.246094 137.679688 205.480469 137.496094 C 205.714844 137.316406 205.96875 137.160156 206.234375 137.027344 C 206.5 136.898438 206.773438 136.792969 207.0625 136.714844 C 207.347656 136.636719 207.640625 136.589844 207.933594 136.570312 C 208.230469 136.550781 208.527344 136.558594 208.820312 136.597656 C 209.117188 136.636719 209.402344 136.703125 209.683594 136.796875 C 209.964844 136.890625 210.234375 137.011719 210.492188 137.160156 C 210.75 137.308594 210.988281 137.480469 211.214844 137.675781 L 238.777344 161.792969 C 239.019531 162.003906 239.234375 162.238281 239.425781 162.5 C 239.621094 162.757812 239.78125 163.035156 239.914062 163.328125 C 240.046875 163.621094 240.148438 163.925781 240.214844 164.238281 C 240.285156 164.554688 240.320312 164.871094 240.320312 165.195312 C 240.320312 165.515625 240.285156 165.835938 240.214844 166.148438 C 240.148438 166.464844 240.046875 166.769531 239.914062 167.0625 C 239.78125 167.355469 239.621094 167.632812 239.425781 167.890625 C 239.234375 168.148438 239.019531 168.382812 238.777344 168.597656 L 211.214844 192.714844 C 210.363281 193.460938 209.367188 193.835938 208.234375 193.832031 Z M 208.234375 193.832031 " fill-opacity="1" fill-rule="nonzero"/><path fill="#000000" d="M 177.226562 204.167969 C 176.875 204.167969 176.527344 204.128906 176.183594 204.046875 C 175.84375 203.964844 175.515625 203.847656 175.199219 203.6875 C 174.882812 203.53125 174.59375 203.339844 174.324219 203.113281 C 174.050781 202.886719 173.8125 202.632812 173.601562 202.351562 C 173.390625 202.066406 173.214844 201.765625 173.078125 201.441406 C 172.9375 201.117188 172.835938 200.785156 172.777344 200.4375 C 172.714844 200.089844 172.695312 199.742188 172.714844 199.390625 C 172.734375 199.039062 172.792969 198.691406 172.894531 198.355469 L 193.566406 129.449219 C 193.644531 129.15625 193.75 128.875 193.886719 128.605469 C 194.019531 128.332031 194.179688 128.078125 194.363281 127.839844 C 194.550781 127.601562 194.757812 127.382812 194.988281 127.183594 C 195.214844 126.988281 195.464844 126.816406 195.726562 126.667969 C 195.992188 126.519531 196.265625 126.398438 196.554688 126.308594 C 196.84375 126.214844 197.136719 126.152344 197.4375 126.117188 C 197.738281 126.085938 198.039062 126.082031 198.34375 126.109375 C 198.644531 126.136719 198.9375 126.191406 199.230469 126.28125 C 199.519531 126.367188 199.796875 126.480469 200.0625 126.625 C 200.332031 126.765625 200.582031 126.933594 200.816406 127.125 C 201.046875 127.316406 201.261719 127.53125 201.449219 127.765625 C 201.640625 128.003906 201.804688 128.253906 201.945312 128.523438 C 202.085938 128.789062 202.199219 129.070312 202.28125 129.359375 C 202.363281 129.652344 202.417969 129.949219 202.445312 130.25 C 202.46875 130.550781 202.460938 130.851562 202.425781 131.152344 C 202.390625 131.453125 202.324219 131.746094 202.230469 132.035156 L 181.558594 200.941406 C 181.417969 201.40625 181.210938 201.839844 180.929688 202.238281 C 180.652344 202.636719 180.316406 202.980469 179.925781 203.273438 C 179.539062 203.5625 179.113281 203.785156 178.648438 203.9375 C 178.1875 204.09375 177.714844 204.167969 177.226562 204.167969 Z M 177.226562 204.167969 " fill-opacity="1" fill-rule="nonzero"/><g clip-path="url(#e78ba5e28a)"><path fill="#ffffff" d="M 160.507812 245.695312 L 151.292969 230.621094 L 142.753906 245.589844 C 140.765625 248.761719 140.59375 252.886719 142.679688 256.304688 C 145.648438 261.160156 152.046875 262.71875 156.96875 259.789062 C 161.890625 256.859375 163.476562 250.554688 160.507812 245.695312 Z M 160.507812 245.695312 " fill-opacity="1" fill-rule="nonzero"/></g><g clip-path="url(#87066d0eab)"><path fill="#ffffff" d="M 201.589844 255.910156 L 186.292969 230.890625 L 172.117188 255.742188 C 168.816406 261.007812 168.53125 267.855469 171.996094 273.523438 C 176.925781 281.585938 187.542969 284.175781 195.71875 279.3125 C 203.886719 274.449219 206.519531 263.980469 201.589844 255.910156 Z M 201.589844 255.910156 " fill-opacity="1" fill-rule="nonzero"/></g><g clip-path="url(#bf26ce36d3)"><path fill="#ffffff" d="M 233.492188 247.117188 L 223.425781 230.652344 L 214.101562 247.003906 C 211.929688 250.46875 211.742188 254.972656 214.019531 258.703125 C 217.265625 264.007812 224.25 265.710938 229.628906 262.511719 C 235.003906 259.3125 236.734375 252.421875 233.492188 247.117188 Z M 233.492188 247.117188 " fill-opacity="1" fill-rule="nonzero"/></g></svg>